<?xml version="1.0" standalone="no"?>
<!DOCTYPE svg PUBLIC "-//W3C//DTD SVG 20010904//EN"
 "http://www.w3.org/TR/2001/REC-SVG-20010904/DTD/svg10.dtd">
<svg version="1.0" xmlns="http://www.w3.org/2000/svg"
 width="1024.000000pt" height="1024.000000pt" viewBox="0 0 1024.000000 1024.000000"
 preserveAspectRatio="xMidYMid meet">
<metadata>
Created by potrace 1.14, written by Peter Selinger 2001-2017
</metadata>
<g transform="translate(0.000000,1024.000000) scale(0.100000,-0.100000)"
fill="#000000" stroke="none">
<path d="M0 5120 l0 -5120 4720 0 4720 0 0 80 0 80 240 0 240 0 0 -80 0 -80
160 0 160 0 0 5120 0 5120 -5120 0 -5120 0 0 -5120z m8100 2345 l0 -155 195 0
195 0 0 -1675 0 -1675 -192 -2 -193 -3 0 -135 0 -135 193 -3 192 -2 0 -140 0
-140 173 -2 172 -3 3 -434 c1 -252 -2 -439 -7 -444 -5 -5 -156 -6 -370 -2
l-361 8 0 288 0 289 -155 0 -155 0 0 590 0 590 153 0 154 0 7 1083 c3 596 3
1276 0 1510 l-7 427 -164 0 -163 0 0 -1503 0 -1504 -2421 -7 c-1332 -4 -2423
-5 -2426 -3 -2 3 -1 754 3 1671 l7 1666 2584 0 2583 0 0 -155z m-1839 -3495
l1146 0 7 -721 c4 -397 6 -722 4 -724 -9 -8 -3754 -14 -4658 -7 l-1045 7 -3
578 -2 578 62 -1 c35 -1 102 -1 151 -1 l87 1 0 152 0 151 1553 -6 c853 -4
2068 -7 2698 -7z"/>
<path d="M3302 5948 l3 -1353 1225 0 c674 0 1597 -4 2053 -9 l827 -9 0 1355 0
1355 -287 6 c-157 4 -1082 7 -2055 7 l-1768 0 2 -1352z m3765 759 c1 -1 5
-407 8 -901 l7 -899 -1028 6 c-566 4 -1273 7 -1571 7 l-543 0 0 305 0 305
-160 0 -160 0 0 589 0 590 1356 -1 c745 0 1357 1 1359 3 3 4 728 0 732 -4z"/>
<path d="M3940 5970 l0 -140 145 0 145 0 0 140 0 140 -145 0 -145 0 0 -140z"/>
<path d="M2130 3539 l0 -139 150 0 150 0 0 140 0 139 -150 -1 -150 0 0 -139z"/>
<path d="M2950 3540 l0 -140 888 0 c488 0 980 -3 1095 -7 l207 -6 0 146 0 147
-1095 0 -1095 0 0 -140z"/>
<path d="M5810 3535 l0 -145 150 0 150 0 0 -135 0 -135 -150 0 -150 0 0 -150
0 -150 150 0 150 0 0 150 0 150 145 0 145 0 0 135 0 135 -145 0 -145 0 0 145
0 145 -150 0 -150 0 0 -145z"/>
<path d="M6397 3673 c-9 -8 -9 -151 -1 -220 l7 -53 159 0 159 0 -3 -142 -3
-143 -157 -3 -158 -3 0 -145 0 -145 158 3 157 3 3 142 3 142 144 -6 145 -6 0
285 0 285 -137 6 c-177 9 -468 9 -476 0z"/>
<path d="M2435 3244 l-7 -135 -107 4 c-58 2 -123 2 -143 -1 l-38 -4 0 -139 0
-139 270 0 270 0 0 144 0 145 58 -2 c31 -1 90 0 130 1 l72 2 0 130 0 130 -249
0 -249 0 -7 -136z"/>
<path d="M2967 3102 c-15 -3 -17 -20 -17 -143 l0 -139 1095 0 1094 0 -6 138
c-3 75 -7 138 -7 139 -3 4 -2141 8 -2159 5z"/>
</g>
</svg>
